<svg width="37" height="37" viewBox="0 0 37 37" fill="none" xmlns="http://www.w3.org/2000/svg">
<path d="M18.5 0C28.7173 0 37 8.28273 37 18.5C37 28.7173 28.7173 37 18.5 37C8.28273 37 0 28.7173 0 18.5C0 8.28273 8.28273 0 18.5 0ZM25.1553 14.7197C24.8624 14.4268 24.3876 14.4268 24.0947 14.7197L17.125 21.6895L13.9053 18.4697C13.6124 18.1768 13.1376 18.1768 12.8447 18.4697C12.5518 18.7626 12.5518 19.2374 12.8447 19.5303L16.5947 23.2803C16.6374 23.3229 16.6851 23.3575 16.7344 23.3877C16.7597 23.4033 16.7858 23.4164 16.8125 23.4287C16.8304 23.4369 16.8479 23.4454 16.8662 23.4521C16.8922 23.4617 16.9186 23.469 16.9453 23.4756C16.9632 23.48 16.9809 23.4842 16.999 23.4873C17.0279 23.4922 17.0568 23.4946 17.0859 23.4961C17.1045 23.4971 17.123 23.4985 17.1416 23.498C17.1672 23.4975 17.1923 23.4934 17.2178 23.4902C17.2393 23.4875 17.2609 23.486 17.2822 23.4814C17.3084 23.4758 17.3338 23.4674 17.3594 23.459C17.3775 23.453 17.3963 23.4488 17.4141 23.4414C17.4429 23.4294 17.4697 23.4132 17.4971 23.3975C17.553 23.3652 17.6074 23.3281 17.6553 23.2803L25.1553 15.7803C25.4482 15.4874 25.4482 15.0126 25.1553 14.7197Z" fill="#AAFFB7"/>
</svg>
