<svg width="60" height="47" viewBox="0 0 60 47" fill="none" xmlns="http://www.w3.org/2000/svg">
<path d="M7.51565 18.3562C5.62104 21.9996 5.99779 26.7543 8.64838 29.954C13.6075 35.923 20.6066 39.7672 28.434 40.2219L34.2685 46.3206C32.8707 46.5022 31.4464 46.5972 30.0002 46.5972C19.4859 46.5972 10.1514 41.6697 3.77671 33.995L3.77362 33.9919C-0.982757 28.2503 -1.24261 19.681 2.99323 13.6298L7.51565 18.3562Z" fill="#229FBC"/>
<path d="M49.5835 6.38686C51.7895 7.97855 53.8136 9.82753 55.6172 11.8906L56.2238 12.6022L56.2261 12.6053C61.2576 18.6793 61.2577 27.918 56.2261 33.9919L56.2245 33.9942C51.2052 40.0424 44.2966 44.4071 36.4234 45.9675L30.9522 40.2482C39.0293 39.9619 46.2926 36.0502 51.3536 29.9516C54.4423 26.221 54.4424 20.3775 51.3544 16.6463L50.8522 16.0568C49.1599 14.1207 47.2455 12.4257 45.1561 11.0144L49.5835 6.38686Z" fill="#E0E0E0"/>
<path d="M30.0002 0C36.6468 8.10266e-05 42.8213 1.96968 48.0752 5.3569L43.6007 10.0346C39.547 7.66591 34.9176 6.32976 30.0002 6.32968C21.5438 6.32969 13.9068 10.3064 8.6476 16.6425C8.6044 16.6946 8.56366 16.7487 8.52166 16.8016L4.11823 12.1996C10.4555 4.78411 19.6713 8.63655e-06 30.0002 0Z" fill="#DE3D3F"/>
<path d="M29.9996 32.2336C34.9345 32.2336 38.935 28.2331 38.935 23.2982C38.935 18.3633 34.9345 14.3628 29.9996 14.3628C25.0647 14.3628 21.0643 18.3633 21.0643 23.2982C21.0643 28.2331 25.0647 32.2336 29.9996 32.2336Z" stroke="#E0E0E0" stroke-width="6" stroke-linecap="round" stroke-linejoin="round"/>
</svg>
